<mxfile host="app.diagrams.net" modified="2021-11-08T12:34:55.327Z" agent="5.0 (Windows NT 10.0; Win64; x64) AppleWebKit/537.36 (KHTML, like Gecko) Chrome/95.0.4638.69 Safari/537.36 Edg/95.0.1020.44" etag="ldHm5bi-kcvWXOFYG8RU" version="15.7.0" type="github">
  <diagram id="il1ou5z5HlYEB6SpMAm3" name="Page-1">
    <mxGraphModel dx="1422" dy="794" grid="0" gridSize="10" guides="1" tooltips="1" connect="1" arrows="1" fold="1" page="1" pageScale="1" pageWidth="827" pageHeight="1169" math="0" shadow="0">
      <root>
        <mxCell id="0" />
        <mxCell id="1" parent="0" />
        <mxCell id="PJMupQD3atlqZfMeYNP1-1" value="공지사항 탐색기" style="rounded=0;whiteSpace=wrap;html=1;" parent="1" vertex="1">
          <mxGeometry x="97" y="177" width="111" height="40" as="geometry" />
        </mxCell>
        <mxCell id="PJMupQD3atlqZfMeYNP1-7" value="데이터베이스 서버" style="rounded=0;whiteSpace=wrap;html=1;" parent="1" vertex="1">
          <mxGeometry x="517" y="177" width="111" height="40" as="geometry" />
        </mxCell>
        <mxCell id="PJMupQD3atlqZfMeYNP1-8" value="공지사항 업로드&lt;br&gt;감지기" style="rounded=0;whiteSpace=wrap;html=1;" parent="1" vertex="1">
          <mxGeometry x="377" y="177" width="111" height="40" as="geometry" />
        </mxCell>
        <mxCell id="PJMupQD3atlqZfMeYNP1-9" value="기숙사 홈페이지" style="rounded=0;whiteSpace=wrap;html=1;" parent="1" vertex="1">
          <mxGeometry x="237" y="177" width="111" height="40" as="geometry" />
        </mxCell>
        <mxCell id="PJMupQD3atlqZfMeYNP1-11" value="" style="endArrow=none;dashed=1;html=1;rounded=0;startArrow=none;" parent="1" source="PJMupQD3atlqZfMeYNP1-28" edge="1">
          <mxGeometry width="50" height="50" relative="1" as="geometry">
            <mxPoint x="572" y="548" as="sourcePoint" />
            <mxPoint x="572" y="217" as="targetPoint" />
          </mxGeometry>
        </mxCell>
        <mxCell id="PJMupQD3atlqZfMeYNP1-12" value="" style="endArrow=none;dashed=1;html=1;rounded=0;startArrow=none;" parent="1" source="PJMupQD3atlqZfMeYNP1-27" edge="1">
          <mxGeometry width="50" height="50" relative="1" as="geometry">
            <mxPoint x="432" y="551" as="sourcePoint" />
            <mxPoint x="432" y="220" as="targetPoint" />
          </mxGeometry>
        </mxCell>
        <mxCell id="PJMupQD3atlqZfMeYNP1-13" value="" style="endArrow=none;dashed=1;html=1;rounded=0;startArrow=none;" parent="1" source="PJMupQD3atlqZfMeYNP1-30" edge="1">
          <mxGeometry width="50" height="50" relative="1" as="geometry">
            <mxPoint x="292" y="548" as="sourcePoint" />
            <mxPoint x="292" y="217" as="targetPoint" />
          </mxGeometry>
        </mxCell>
        <mxCell id="PJMupQD3atlqZfMeYNP1-14" value="" style="endArrow=none;dashed=1;html=1;rounded=0;startArrow=none;" parent="1" source="PJMupQD3atlqZfMeYNP1-29" edge="1">
          <mxGeometry width="50" height="50" relative="1" as="geometry">
            <mxPoint x="152" y="548" as="sourcePoint" />
            <mxPoint x="152" y="217" as="targetPoint" />
          </mxGeometry>
        </mxCell>
        <mxCell id="PJMupQD3atlqZfMeYNP1-15" value="" style="endArrow=classic;html=1;rounded=0;" parent="1" edge="1">
          <mxGeometry width="50" height="50" relative="1" as="geometry">
            <mxPoint x="156" y="248" as="sourcePoint" />
            <mxPoint x="289" y="248" as="targetPoint" />
          </mxGeometry>
        </mxCell>
        <mxCell id="PJMupQD3atlqZfMeYNP1-16" value="" style="endArrow=classic;html=1;rounded=0;" parent="1" edge="1">
          <mxGeometry width="50" height="50" relative="1" as="geometry">
            <mxPoint x="289" y="282" as="sourcePoint" />
            <mxPoint x="156" y="282" as="targetPoint" />
          </mxGeometry>
        </mxCell>
        <mxCell id="PJMupQD3atlqZfMeYNP1-17" value="" style="endArrow=classic;html=1;rounded=0;" parent="1" edge="1">
          <mxGeometry width="50" height="50" relative="1" as="geometry">
            <mxPoint x="572" y="363" as="sourcePoint" />
            <mxPoint x="439" y="363" as="targetPoint" />
          </mxGeometry>
        </mxCell>
        <mxCell id="PJMupQD3atlqZfMeYNP1-18" value="" style="endArrow=classic;html=1;rounded=0;" parent="1" edge="1">
          <mxGeometry width="50" height="50" relative="1" as="geometry">
            <mxPoint x="154" y="319" as="sourcePoint" />
            <mxPoint x="428" y="319" as="targetPoint" />
          </mxGeometry>
        </mxCell>
        <mxCell id="PJMupQD3atlqZfMeYNP1-19" value="" style="endArrow=classic;html=1;rounded=0;" parent="1" edge="1">
          <mxGeometry width="50" height="50" relative="1" as="geometry">
            <mxPoint x="444" y="334" as="sourcePoint" />
            <mxPoint x="571" y="334" as="targetPoint" />
          </mxGeometry>
        </mxCell>
        <mxCell id="PJMupQD3atlqZfMeYNP1-20" value="" style="endArrow=classic;html=1;rounded=0;" parent="1" edge="1">
          <mxGeometry width="50" height="50" relative="1" as="geometry">
            <mxPoint x="436" y="407" as="sourcePoint" />
            <mxPoint x="569" y="407" as="targetPoint" />
          </mxGeometry>
        </mxCell>
        <mxCell id="PJMupQD3atlqZfMeYNP1-30" value="" style="rounded=0;whiteSpace=wrap;html=1;" parent="1" vertex="1">
          <mxGeometry x="284" y="256" width="17" height="23" as="geometry" />
        </mxCell>
        <mxCell id="PJMupQD3atlqZfMeYNP1-31" value="" style="endArrow=none;dashed=1;html=1;rounded=0;" parent="1" target="PJMupQD3atlqZfMeYNP1-30" edge="1">
          <mxGeometry width="50" height="50" relative="1" as="geometry">
            <mxPoint x="292" y="548" as="sourcePoint" />
            <mxPoint x="292" y="217" as="targetPoint" />
          </mxGeometry>
        </mxCell>
        <mxCell id="PJMupQD3atlqZfMeYNP1-32" value="키워드 검색&lt;br style=&quot;font-size: 10px;&quot;&gt;공지사항 주소데이터 요청" style="text;html=1;strokeColor=none;fillColor=none;align=center;verticalAlign=middle;whiteSpace=wrap;rounded=0;fontSize=10;" parent="1" vertex="1">
          <mxGeometry x="139" y="247" width="145" height="30" as="geometry" />
        </mxCell>
        <mxCell id="PJMupQD3atlqZfMeYNP1-33" value="공지사항 주소 데이터" style="text;html=1;strokeColor=none;fillColor=none;align=center;verticalAlign=middle;whiteSpace=wrap;rounded=0;fontSize=10;" parent="1" vertex="1">
          <mxGeometry x="223" y="282" width="69" height="30" as="geometry" />
        </mxCell>
        <mxCell id="PJMupQD3atlqZfMeYNP1-29" value="" style="rounded=0;whiteSpace=wrap;html=1;" parent="1" vertex="1">
          <mxGeometry x="144" y="293" width="17" height="23" as="geometry" />
        </mxCell>
        <mxCell id="PJMupQD3atlqZfMeYNP1-34" value="" style="endArrow=none;dashed=1;html=1;rounded=0;" parent="1" target="PJMupQD3atlqZfMeYNP1-29" edge="1">
          <mxGeometry width="50" height="50" relative="1" as="geometry">
            <mxPoint x="152" y="548" as="sourcePoint" />
            <mxPoint x="152" y="217" as="targetPoint" />
          </mxGeometry>
        </mxCell>
        <mxCell id="PJMupQD3atlqZfMeYNP1-35" value="키워드, 키워드 공지사항 주소 데이터" style="text;html=1;strokeColor=none;fillColor=none;align=center;verticalAlign=middle;whiteSpace=wrap;rounded=0;fontSize=10;" parent="1" vertex="1">
          <mxGeometry x="152" y="320" width="96" height="30" as="geometry" />
        </mxCell>
        <mxCell id="PJMupQD3atlqZfMeYNP1-28" value="" style="rounded=0;whiteSpace=wrap;html=1;" parent="1" vertex="1">
          <mxGeometry x="564" y="338" width="17" height="22" as="geometry" />
        </mxCell>
        <mxCell id="PJMupQD3atlqZfMeYNP1-36" value="" style="endArrow=none;dashed=1;html=1;rounded=0;startArrow=none;" parent="1" source="PJMupQD3atlqZfMeYNP1-39" target="PJMupQD3atlqZfMeYNP1-28" edge="1">
          <mxGeometry width="50" height="50" relative="1" as="geometry">
            <mxPoint x="572.0000000000002" y="548" as="sourcePoint" />
            <mxPoint x="572.0000000000002" y="217" as="targetPoint" />
          </mxGeometry>
        </mxCell>
        <mxCell id="PJMupQD3atlqZfMeYNP1-27" value="" style="rounded=0;whiteSpace=wrap;html=1;" parent="1" vertex="1">
          <mxGeometry x="424" y="323.5" width="17" height="80.5" as="geometry" />
        </mxCell>
        <mxCell id="PJMupQD3atlqZfMeYNP1-37" value="" style="endArrow=none;dashed=1;html=1;rounded=0;" parent="1" target="PJMupQD3atlqZfMeYNP1-27" edge="1">
          <mxGeometry width="50" height="50" relative="1" as="geometry">
            <mxPoint x="432" y="551" as="sourcePoint" />
            <mxPoint x="432" y="219.9999999999999" as="targetPoint" />
          </mxGeometry>
        </mxCell>
        <mxCell id="PJMupQD3atlqZfMeYNP1-38" value="&lt;font style=&quot;font-size: 9px&quot;&gt;저장된 키워드&lt;br style=&quot;font-size: 9px&quot;&gt;&amp;nbsp;공지사항 주소 요청&lt;/font&gt;" style="text;html=1;strokeColor=none;fillColor=none;align=center;verticalAlign=middle;whiteSpace=wrap;rounded=0;fontSize=9;" parent="1" vertex="1">
          <mxGeometry x="441" y="334" width="94" height="30" as="geometry" />
        </mxCell>
        <mxCell id="PJMupQD3atlqZfMeYNP1-40" value="키워드 공지사항 주소" style="text;html=1;strokeColor=none;fillColor=none;align=center;verticalAlign=middle;whiteSpace=wrap;rounded=0;fontSize=10;" parent="1" vertex="1">
          <mxGeometry x="474" y="360" width="102" height="30" as="geometry" />
        </mxCell>
        <mxCell id="PJMupQD3atlqZfMeYNP1-41" value="" style="endArrow=classic;html=1;rounded=0;fontSize=10;" parent="1" edge="1">
          <mxGeometry width="50" height="50" relative="1" as="geometry">
            <mxPoint x="420" y="364" as="sourcePoint" />
            <mxPoint x="420" y="404" as="targetPoint" />
            <Array as="points">
              <mxPoint x="402" y="364" />
              <mxPoint x="402" y="404" />
            </Array>
          </mxGeometry>
        </mxCell>
        <mxCell id="PJMupQD3atlqZfMeYNP1-42" value="주소 데이터 비교,저장" style="text;html=1;strokeColor=none;fillColor=none;align=center;verticalAlign=middle;whiteSpace=wrap;rounded=0;fontSize=10;" parent="1" vertex="1">
          <mxGeometry x="340.5" y="374" width="60" height="30" as="geometry" />
        </mxCell>
        <mxCell id="PJMupQD3atlqZfMeYNP1-39" value="" style="rounded=0;whiteSpace=wrap;html=1;" parent="1" vertex="1">
          <mxGeometry x="564" y="410" width="17" height="37" as="geometry" />
        </mxCell>
        <mxCell id="PJMupQD3atlqZfMeYNP1-43" value="" style="endArrow=none;dashed=1;html=1;rounded=0;" parent="1" target="PJMupQD3atlqZfMeYNP1-39" edge="1">
          <mxGeometry width="50" height="50" relative="1" as="geometry">
            <mxPoint x="572.0000000000002" y="548" as="sourcePoint" />
            <mxPoint x="572.472361809045" y="360.0000000000001" as="targetPoint" />
          </mxGeometry>
        </mxCell>
        <mxCell id="PJMupQD3atlqZfMeYNP1-44" value="" style="endArrow=classic;html=1;rounded=0;fontSize=10;" parent="1" edge="1">
          <mxGeometry width="50" height="50" relative="1" as="geometry">
            <mxPoint x="584" y="411" as="sourcePoint" />
            <mxPoint x="584" y="447" as="targetPoint" />
            <Array as="points">
              <mxPoint x="598" y="411" />
              <mxPoint x="598" y="447" />
            </Array>
          </mxGeometry>
        </mxCell>
        <mxCell id="PJMupQD3atlqZfMeYNP1-45" value="키워드, 키워드 주소 데이터 저장" style="text;html=1;strokeColor=none;fillColor=none;align=center;verticalAlign=middle;whiteSpace=wrap;rounded=0;fontSize=10;" parent="1" vertex="1">
          <mxGeometry x="602" y="415" width="86" height="30" as="geometry" />
        </mxCell>
        <mxCell id="PJMupQD3atlqZfMeYNP1-46" value="키워드, 새 키워드&lt;br&gt;공지사항 주소 데이터" style="text;html=1;strokeColor=none;fillColor=none;align=center;verticalAlign=middle;whiteSpace=wrap;rounded=0;fontSize=10;" parent="1" vertex="1">
          <mxGeometry x="424" y="410" width="114" height="30" as="geometry" />
        </mxCell>
      </root>
    </mxGraphModel>
  </diagram>
</mxfile>
